<?xml version="1.0" encoding="UTF-8" standalone="no"?>
<svg
   viewBox="0 0 16 15"
   version="1.1"
   id="svg12"
   sodipodi:docname="icons-solid.svg"
   inkscape:version="1.2.2 (732a01da63, 2022-12-09)"
   width="16"
   height="15"
   xmlns:inkscape="http://www.inkscape.org/namespaces/inkscape"
   xmlns:sodipodi="http://sodipodi.sourceforge.net/DTD/sodipodi-0.dtd"
   xmlns="http://www.w3.org/2000/svg"
   xmlns:svg="http://www.w3.org/2000/svg">
  <defs
     id="defs16" />
  <sodipodi:namedview
     id="namedview14"
     pagecolor="#000000"
     bordercolor="#000000"
     borderopacity="0.25"
     inkscape:showpageshadow="2"
     inkscape:pageopacity="0"
     inkscape:pagecheckerboard="0"
     inkscape:deskcolor="#d1d1d1"
     showgrid="false"
     inkscape:zoom="11.424194"
     inkscape:cx="-6.6963149"
     inkscape:cy="10.328956"
     inkscape:window-width="1366"
     inkscape:window-height="697"
     inkscape:window-x="-8"
     inkscape:window-y="-8"
     inkscape:window-maximized="1"
     inkscape:current-layer="svg12" />
  <!--! Font Awesome Pro 6.4.0 by @fontawesome - https://fontawesome.com License - https://fontawesome.com/license (Commercial License) Copyright 2023 Fonticons, Inc. -->
  <path
     d="m 15.560404,0.16216622 c 0.230156,0.17738155 0.363895,0.44641026 0.363895,0.73022075 V 5.1495444 c 0,0.7834353 -0.892631,1.4190525 -1.990537,1.4190525 -1.097907,0 -1.990537,-0.6356172 -1.990537,-1.4190525 0,-0.7834351 0.89263,-1.4190525 1.990537,-1.4190525 V 2.0453671 l -2.985806,0.567621 v 3.4825913 c 0,0.7834353 -0.892632,1.4190525 -1.9905377,1.4190525 -1.0979057,0 -1.9905374,-0.6356172 -1.9905374,-1.4190525 0,-0.7834352 0.8926317,-1.4190525 1.9905374,-1.4190525 V 1.838422 c 0,-0.452323 0.3359032,-0.83960609 0.7993253,-0.92829687 l 4.9763434,-0.94603499 c 0.29236,-0.05617082 0.594051,0.01773815 0.827317,0.19511971 z M 2.3233305,8.9336845 2.6903358,8.4074526 C 2.8738384,8.1443365 3.1848599,7.9876495 3.5176528,7.9876495 h 1.9190025 c 0.332793,0 0.6438145,0.156687 0.8273171,0.4198031 L 6.634088,8.9336845 h 0.8304272 c 0.824207,0 1.4929031,0.6356171 1.4929031,1.4190525 v 3.311121 c 0,0.783437 -0.6686961,1.419053 -1.4929031,1.419053 H 1.4929031 C 0.66869616,15.082911 0,14.447295 0,13.663858 V 10.352737 C 0,9.5693016 0.66869616,8.9336845 1.4929031,8.9336845 Z m 3.6482817,3.0746135 a 1.4929031,1.4190525 0 1 0 -2.9858061,0 1.4929031,1.4190525 0 1 0 2.9858061,0 z M 14.888597,8.1739001 13.694275,10.825754 h 1.73239 c 0.208384,0 0.391888,0.121211 0.466533,0.307462 0.07464,0.18625 0.01866,0.393195 -0.13685,0.523275 l -3.981076,3.311123 c -0.174171,0.144861 -0.432319,0.156687 -0.618932,0.02661 -0.186613,-0.13008 -0.255037,-0.366589 -0.164841,-0.567621 l 1.191212,-2.654811 h -1.73239 c -0.208384,0 -0.391887,-0.12121 -0.4665318,-0.307461 -0.074645,-0.18625 -0.018661,-0.393196 0.1368498,-0.523275 L 14.101713,7.62993 c 0.174173,-0.1448617 0.432321,-0.1566871 0.618933,-0.026608 0.186614,0.13008 0.255038,0.3665887 0.164842,0.5676211 z M 4.34497,6.4237353 c -0.2021641,0.1921634 -0.5287365,0.1921634 -0.7153494,0 L 0.61893272,3.4703323 C -0.2519274,2.6129881 -0.20527417,1.196892 0.77444346,0.39867496 1.6142015,-0.29606948 2.9018304,-0.16303331 3.6793841,0.59083832 L 3.9904056,0.90125605 4.2858758,0.59083832 C 5.0634295,-0.16303331 6.3355074,-0.29606948 7.2063675,0.39867496 8.1705341,1.196892 8.2171872,2.6129881 7.3463271,3.4703323 l -2.998247,2.953403 z"
     id="path10"
     style="fill:#ffffff;fill-opacity:1;stroke-width:0.0303231" />
</svg>
